<svg width="160" height="30" viewBox="0 0 160 30" fill="none" xmlns="http://www.w3.org/2000/svg">
<path d="M44.624 24.264C43.392 24.264 42.232 24.04 41.144 23.592C40.072 23.144 39.136 22.528 38.336 21.744C37.536 20.944 36.904 20.016 36.44 18.96C35.992 17.888 35.768 16.736 35.768 15.504C35.768 14.272 36 13.128 36.464 12.072C36.928 11.016 37.568 10.096 38.384 9.312C39.216 8.512 40.184 7.896 41.288 7.464C42.392 7.016 43.576 6.792 44.84 6.792C46.296 6.792 47.616 7.056 48.8 7.584C50 8.112 50.992 8.84 51.776 9.768L49.208 12.336C48.664 11.632 48.024 11.104 47.288 10.752C46.552 10.4 45.72 10.224 44.792 10.224C43.8 10.224 42.912 10.448 42.128 10.896C41.344 11.328 40.728 11.944 40.28 12.744C39.848 13.528 39.632 14.448 39.632 15.504C39.632 16.56 39.848 17.488 40.28 18.288C40.712 19.088 41.304 19.712 42.056 20.16C42.808 20.608 43.672 20.832 44.648 20.832C45.64 20.832 46.48 20.648 47.168 20.28C47.872 19.896 48.408 19.352 48.776 18.648C49.16 17.928 49.352 17.056 49.352 16.032L51.848 17.712L44.288 17.592V14.4H53.192V14.952C53.192 16.984 52.824 18.696 52.088 20.088C51.368 21.464 50.36 22.504 49.064 23.208C47.784 23.912 46.304 24.264 44.624 24.264ZM55.1398 24V12.336H58.8118V24H55.1398ZM58.8118 17.592L57.2758 16.392C57.5798 15.032 58.0918 13.976 58.8118 13.224C59.5318 12.472 60.5318 12.096 61.8118 12.096C62.3718 12.096 62.8598 12.184 63.2758 12.36C63.7078 12.52 64.0838 12.776 64.4038 13.128L62.2198 15.888C62.0598 15.712 61.8598 15.576 61.6198 15.48C61.3798 15.384 61.1078 15.336 60.8038 15.336C60.1958 15.336 59.7078 15.528 59.3398 15.912C58.9878 16.28 58.8118 16.84 58.8118 17.592ZM69.9258 24.24C68.8538 24.24 67.8938 23.976 67.0458 23.448C66.2138 22.92 65.5498 22.2 65.0538 21.288C64.5738 20.376 64.3338 19.336 64.3338 18.168C64.3338 17 64.5738 15.96 65.0538 15.048C65.5498 14.136 66.2138 13.416 67.0458 12.888C67.8938 12.36 68.8538 12.096 69.9258 12.096C70.7098 12.096 71.4138 12.248 72.0378 12.552C72.6778 12.856 73.1978 13.28 73.5978 13.824C73.9978 14.352 74.2218 14.96 74.2698 15.648V20.688C74.2218 21.376 73.9978 21.992 73.5978 22.536C73.2138 23.064 72.7018 23.48 72.0618 23.784C71.4218 24.088 70.7098 24.24 69.9258 24.24ZM70.6698 20.928C71.4538 20.928 72.0858 20.672 72.5658 20.16C73.0458 19.632 73.2858 18.968 73.2858 18.168C73.2858 17.624 73.1738 17.144 72.9498 16.728C72.7418 16.312 72.4378 15.992 72.0378 15.768C71.6538 15.528 71.2058 15.408 70.6938 15.408C70.1818 15.408 69.7258 15.528 69.3258 15.768C68.9418 15.992 68.6298 16.312 68.3898 16.728C68.1658 17.144 68.0538 17.624 68.0538 18.168C68.0538 18.696 68.1658 19.168 68.3898 19.584C68.6138 20 68.9258 20.328 69.3258 20.568C69.7258 20.808 70.1738 20.928 70.6698 20.928ZM73.1418 24V20.856L73.6938 18.024L73.1418 15.192V12.336H76.7418V24H73.1418ZM87.0313 24V17.352C87.0313 16.744 86.8393 16.256 86.4553 15.888C86.0873 15.504 85.6153 15.312 85.0393 15.312C84.6393 15.312 84.2873 15.4 83.9833 15.576C83.6793 15.736 83.4393 15.976 83.2633 16.296C83.0873 16.6 82.9993 16.952 82.9993 17.352L81.5833 16.656C81.5833 15.744 81.7833 14.944 82.1833 14.256C82.5833 13.568 83.1353 13.04 83.8393 12.672C84.5593 12.288 85.3673 12.096 86.2633 12.096C87.1273 12.096 87.8873 12.304 88.5433 12.72C89.2153 13.12 89.7433 13.656 90.1273 14.328C90.5113 15 90.7032 15.736 90.7032 16.536V24H87.0313ZM79.3273 24V12.336H82.9993V24H79.3273ZM98.0296 24.24C96.9256 24.24 95.9416 23.976 95.0776 23.448C94.2296 22.92 93.5576 22.2 93.0616 21.288C92.5816 20.376 92.3416 19.336 92.3416 18.168C92.3416 17 92.5816 15.96 93.0616 15.048C93.5576 14.136 94.2296 13.416 95.0776 12.888C95.9416 12.36 96.9256 12.096 98.0296 12.096C98.8296 12.096 99.5496 12.248 100.19 12.552C100.846 12.856 101.382 13.28 101.798 13.824C102.23 14.352 102.47 14.96 102.518 15.648V20.568C102.47 21.256 102.238 21.88 101.822 22.44C101.406 22.984 100.87 23.424 100.214 23.76C99.5576 24.08 98.8296 24.24 98.0296 24.24ZM98.6776 20.928C99.2056 20.928 99.6616 20.816 100.046 20.592C100.43 20.352 100.734 20.024 100.958 19.608C101.182 19.192 101.294 18.712 101.294 18.168C101.294 17.624 101.182 17.152 100.958 16.752C100.75 16.336 100.446 16.008 100.046 15.768C99.6616 15.528 99.2136 15.408 98.7016 15.408C98.1896 15.408 97.7336 15.528 97.3336 15.768C96.9496 16.008 96.6376 16.336 96.3976 16.752C96.1736 17.168 96.0616 17.64 96.0616 18.168C96.0616 18.696 96.1736 19.168 96.3976 19.584C96.6216 20 96.9336 20.328 97.3336 20.568C97.7336 20.808 98.1816 20.928 98.6776 20.928ZM104.75 24H101.15V20.856L101.702 18.024L101.078 15.192V6.576H104.75V24ZM106.399 24L113.119 7.056H116.527L123.175 24H119.191L114.103 9.936H115.471L110.311 24H106.399ZM110.215 20.928V17.856H119.455V20.928H110.215ZM129.582 24.264C128.51 24.264 127.558 24.048 126.726 23.616C125.91 23.168 125.27 22.56 124.806 21.792C124.342 21.008 124.11 20.112 124.11 19.104V12.336H127.782V19.056C127.782 19.456 127.846 19.8 127.974 20.088C128.118 20.376 128.326 20.6 128.598 20.76C128.87 20.92 129.198 21 129.582 21C130.126 21 130.558 20.832 130.878 20.496C131.198 20.144 131.358 19.664 131.358 19.056V12.336H135.03V19.08C135.03 20.104 134.798 21.008 134.334 21.792C133.87 22.56 133.23 23.168 132.414 23.616C131.598 24.048 130.654 24.264 129.582 24.264ZM138.991 24V7.512H142.663V24H138.991ZM136.351 15.456V12.336H145.303V15.456H136.351ZM152.303 24.264C151.103 24.264 150.015 24 149.039 23.472C148.079 22.928 147.319 22.192 146.759 21.264C146.199 20.336 145.919 19.296 145.919 18.144C145.919 16.992 146.199 15.96 146.759 15.048C147.319 14.136 148.079 13.416 149.039 12.888C149.999 12.344 151.087 12.072 152.303 12.072C153.519 12.072 154.607 12.336 155.567 12.864C156.527 13.392 157.287 14.12 157.847 15.048C158.407 15.96 158.687 16.992 158.687 18.144C158.687 19.296 158.407 20.336 157.847 21.264C157.287 22.192 156.527 22.928 155.567 23.472C154.607 24 153.519 24.264 152.303 24.264ZM152.303 20.928C152.831 20.928 153.295 20.816 153.695 20.592C154.095 20.352 154.399 20.024 154.607 19.608C154.831 19.176 154.943 18.688 154.943 18.144C154.943 17.6 154.831 17.128 154.607 16.728C154.383 16.312 154.071 15.992 153.671 15.768C153.287 15.528 152.831 15.408 152.303 15.408C151.791 15.408 151.335 15.528 150.935 15.768C150.535 15.992 150.223 16.312 149.999 16.728C149.775 17.144 149.663 17.624 149.663 18.168C149.663 18.696 149.775 19.176 149.999 19.608C150.223 20.024 150.535 20.352 150.935 20.592C151.335 20.816 151.791 20.928 152.303 20.928Z" fill="#414141"/>
<path d="M3.50614 11.7502C3.53267 11.7502 3.55921 11.7502 3.58655 11.7502C3.63231 11.7501 3.63231 11.7501 3.67898 11.75C3.72986 11.7501 3.72986 11.7501 3.78176 11.7503C3.81747 11.7503 3.85319 11.7502 3.88998 11.7502C3.98956 11.7502 4.08913 11.7503 4.18871 11.7504C4.29592 11.7506 4.40313 11.7505 4.51034 11.7505C4.69624 11.7505 4.88214 11.7506 5.06804 11.7508C5.33682 11.751 5.6056 11.7511 5.87439 11.7512C6.31042 11.7512 6.74646 11.7515 7.18249 11.7518C7.60617 11.7521 8.02985 11.7523 8.45352 11.7524C8.47962 11.7525 8.50571 11.7525 8.5326 11.7525C8.66352 11.7525 8.79443 11.7526 8.92534 11.7526C10.0121 11.7529 11.0989 11.7535 12.1857 11.7543C12.1857 11.9119 12.1333 12.0025 12.0639 12.1353C11.7206 12.8167 11.4692 13.5626 11.3331 14.3249C11.3276 14.3543 11.322 14.3837 11.3163 14.414C11.1344 15.4075 11.1463 16.4647 11.3331 17.4559C11.3378 17.4823 11.3425 17.5087 11.3474 17.536C11.5689 18.7599 12.1029 19.9181 12.8252 20.8835C12.8379 20.9006 12.8506 20.9178 12.8637 20.9354C13.1847 21.3668 13.5438 21.7676 13.9519 22.1029C13.977 22.1238 13.977 22.1238 14.0027 22.1451C14.4365 22.5033 14.8888 22.8083 15.3831 23.0587C15.4048 23.0698 15.4266 23.081 15.449 23.0924C16.4133 23.5829 17.4478 23.8239 18.5119 23.825C18.5354 23.825 18.5588 23.825 18.583 23.8251C18.9841 23.8247 19.3728 23.7956 19.768 23.7178C19.7924 23.7133 19.8168 23.7087 19.842 23.7039C20.8172 23.5171 21.7836 23.1097 22.5999 22.4984C22.6493 22.4621 22.6493 22.4621 22.6996 22.425C22.9658 22.2262 23.2112 22.0061 23.4526 21.7733C23.4693 21.7573 23.4861 21.7413 23.5033 21.7247C23.6923 21.5432 23.8692 21.3576 24.0311 21.1472C24.055 21.1184 24.0789 21.0896 24.1035 21.06C24.4 20.6994 24.6558 20.2949 24.8717 19.8726C24.8854 19.8459 24.8991 19.8192 24.9132 19.7917C24.9236 19.7713 24.9339 19.751 24.9447 19.73C24.9213 19.73 24.898 19.73 24.8739 19.7301C24.3064 19.7308 23.739 19.7313 23.1715 19.7317C22.8971 19.7319 22.6227 19.7321 22.3483 19.7325C22.1092 19.7328 21.8701 19.733 21.631 19.7331C21.5043 19.7331 21.3776 19.7332 21.251 19.7335C21.1319 19.7337 21.0128 19.7338 20.8937 19.7337C20.8498 19.7337 20.806 19.7338 20.7622 19.7339C20.7026 19.7341 20.643 19.734 20.5834 19.7339C20.55 19.734 20.5165 19.734 20.4821 19.734C20.4075 19.73 20.4075 19.73 20.377 19.697C20.374 19.6471 20.3732 19.597 20.3732 19.5469C20.3731 19.5144 20.373 19.482 20.3729 19.4486C20.373 19.4127 20.373 19.3768 20.3731 19.3398C20.373 19.3023 20.373 19.2647 20.3729 19.226C20.3728 19.1012 20.3729 18.9763 20.373 18.8515C20.373 18.7651 20.3729 18.6788 20.3729 18.5925C20.3728 18.4113 20.3729 18.2301 20.3731 18.0489C20.3732 17.8391 20.3732 17.6293 20.373 17.4196C20.3728 17.2181 20.3729 17.0167 20.373 16.8153C20.373 16.7294 20.3729 16.6435 20.3729 16.5576C20.3728 16.4378 20.3729 16.318 20.3731 16.1982C20.373 16.1623 20.373 16.1264 20.3729 16.0894C20.373 16.057 20.3731 16.0245 20.3732 15.9911C20.3732 15.9628 20.3732 15.9344 20.3732 15.9052C20.377 15.841 20.377 15.841 20.4075 15.808C20.4557 15.8048 20.5041 15.8039 20.5524 15.8039C20.5839 15.8038 20.6155 15.8037 20.648 15.8036C20.6831 15.8037 20.7181 15.8038 20.7543 15.8038C20.7912 15.8038 20.8281 15.8037 20.8662 15.8037C20.9692 15.8036 21.0722 15.8036 21.1752 15.8037C21.2861 15.8038 21.3969 15.8037 21.5078 15.8036C21.7252 15.8034 21.9426 15.8035 22.1601 15.8036C22.3367 15.8036 22.5133 15.8037 22.6899 15.8036C22.715 15.8036 22.7401 15.8036 22.7659 15.8036C22.8169 15.8036 22.8678 15.8036 22.9188 15.8036C23.3972 15.8035 23.8756 15.8036 24.354 15.8038C24.7649 15.8039 25.1758 15.8039 25.5868 15.8037C26.0634 15.8036 26.54 15.8035 27.0167 15.8036C27.0674 15.8036 27.1182 15.8036 27.169 15.8036C27.2065 15.8036 27.2065 15.8036 27.2447 15.8036C27.4212 15.8037 27.5977 15.8036 27.7742 15.8035C27.9892 15.8034 28.2041 15.8035 28.4191 15.8036C28.5288 15.8037 28.6386 15.8038 28.7484 15.8037C28.8671 15.8035 28.9859 15.8037 29.1046 15.8038C29.1397 15.8038 29.1748 15.8037 29.2109 15.8036C29.2424 15.8037 29.274 15.8038 29.3065 15.8039C29.3339 15.8039 29.3614 15.8039 29.3897 15.8039C29.4514 15.808 29.4514 15.808 29.4818 15.841C29.4908 15.989 29.4893 16.1376 29.4895 16.2859C29.4895 16.3194 29.4895 16.3194 29.4895 16.3535C29.4889 16.7924 29.4544 17.2202 29.3905 17.6537C29.3827 17.7072 29.3827 17.7072 29.3747 17.7619C29.1161 19.4815 28.5281 21.1712 27.5939 22.5973C27.5734 22.6287 27.5529 22.6602 27.5318 22.6926C27.4722 22.7825 27.4116 22.8713 27.3503 22.9598C27.3272 22.9933 27.3041 23.0267 27.2803 23.0611C26.7455 23.8288 26.1307 24.54 25.4319 25.135C25.3915 25.1702 25.3511 25.2054 25.3108 25.2406C23.7906 26.5556 21.9358 27.38 20.0135 27.6686C19.9908 27.672 19.9681 27.6755 19.9447 27.679C19.4817 27.7475 19.0213 27.7786 18.5538 27.7778C18.5321 27.7778 18.5104 27.7778 18.488 27.7777C18.0801 27.7767 17.6765 27.7561 17.271 27.7057C17.2393 27.7018 17.2076 27.6979 17.1749 27.6939C16.2027 27.5687 15.2492 27.2945 14.3477 26.8818C14.3283 26.8729 14.3089 26.8641 14.289 26.855C13.9773 26.7127 13.6731 26.5569 13.3733 26.3874C13.3525 26.3757 13.3318 26.3641 13.3104 26.3521C13.0108 26.1826 12.7262 25.9924 12.4446 25.79C12.4144 25.7684 12.3842 25.7468 12.3531 25.7245C12.1816 25.5995 12.0176 25.4682 11.8575 25.3265C11.7903 25.2673 11.7219 25.2102 11.6528 25.1536C11.5271 25.0482 11.4093 24.9351 11.2921 24.8188C11.2282 24.7562 11.1636 24.6951 11.0983 24.6343C10.9514 24.4956 10.814 24.3473 10.6765 24.1978C10.6518 24.1712 10.6271 24.1446 10.6016 24.1171C10.4534 23.9565 10.3114 23.7923 10.176 23.619C10.1602 23.5989 10.1445 23.5788 10.1283 23.558C9.74095 23.0584 9.40355 22.5281 9.08788 21.973C9.05579 21.9166 9.02332 21.8605 8.99076 21.8044C8.66037 21.2178 8.41862 20.5693 8.19666 19.9277C8.18036 19.8808 8.18036 19.8808 8.16373 19.833C7.75741 18.6447 7.54656 17.3414 7.55529 16.0758C7.55542 16.037 7.55556 15.9982 7.5557 15.9583C7.55606 15.8642 7.55655 15.7702 7.55719 15.6762C7.51908 15.6772 7.51908 15.6772 7.4802 15.6783C6.30734 15.7059 5.34424 15.4504 4.46238 14.5676C3.8385 13.8935 3.4198 12.9354 3.41016 11.9767C3.41137 11.7566 3.41137 11.7566 3.50614 11.7502Z" fill="#B3261E"/>
<path d="M0.159878 4.00433C0.18685 4.00424 0.213821 4.00415 0.24161 4.00406C0.286658 4.00416 0.286658 4.00416 0.332616 4.00426C0.364341 4.0042 0.396066 4.00415 0.428752 4.00409C0.536498 4.00393 0.644242 4.00401 0.751987 4.00409C0.829449 4.00403 0.906911 4.00396 0.984373 4.00387C1.15355 4.00371 1.32272 4.00365 1.4919 4.00369C1.7435 4.00374 1.99511 4.0036 2.24671 4.00343C2.72236 4.00311 3.19802 4.00301 3.67367 4.003C4.04131 4.00298 4.40895 4.00291 4.77658 4.00281C4.88233 4.00278 4.98809 4.00275 5.09384 4.00272C5.12013 4.00271 5.14642 4.0027 5.17351 4.0027C5.91364 4.00249 6.65378 4.00236 7.39392 4.00238C7.42185 4.00238 7.44978 4.00238 7.47856 4.00238C7.62015 4.00238 7.76173 4.00239 7.90331 4.00239C7.93143 4.00239 7.95955 4.00239 7.98852 4.00239C8.04538 4.00239 8.10225 4.00239 8.15911 4.0024C9.04224 4.00242 9.92536 4.00217 10.8085 4.00172C11.8007 4.00121 12.7929 4.00093 13.7851 4.00096C13.8911 4.00096 13.9971 4.00096 14.1031 4.00096C14.1292 4.00096 14.1553 4.00096 14.1822 4.00097C14.601 4.00097 15.0198 4.00076 15.4386 4.00047C15.8604 4.00019 16.2822 4.00016 16.704 4.00038C16.9541 4.0005 17.2042 4.00044 17.4542 4.00011C17.6418 3.99989 17.8294 4.00002 18.017 4.00028C18.0922 4.00033 18.1675 4.00027 18.2428 4.00008C18.9108 3.99855 19.5754 4.03476 20.2361 4.14651C20.2568 4.14996 20.2775 4.15342 20.2988 4.15697C21.3911 4.3411 22.4576 4.71658 23.4392 5.2681C23.5317 5.31997 23.625 5.36884 23.719 5.41744C24.5085 5.84646 25.2091 6.43046 25.8695 7.05967C25.9133 7.10109 25.9576 7.14189 26.0019 7.1826C26.0242 7.20303 26.0464 7.22347 26.0694 7.24452C26.0971 7.26969 26.0971 7.26969 26.1254 7.29537C26.1626 7.33721 26.1626 7.33721 26.1626 7.40313C26.19 7.41638 26.19 7.41638 26.2178 7.42991C26.2844 7.46902 26.3275 7.50516 26.3758 7.56792C26.3758 7.58967 26.3758 7.61142 26.3758 7.63383C26.394 7.64254 26.4123 7.65125 26.4311 7.66022C26.501 7.70176 26.5363 7.73887 26.587 7.8048C26.6583 7.8962 26.7298 7.98718 26.8029 8.07683C27.4357 8.85435 27.9715 9.73058 28.3863 10.6649C28.4168 10.7337 28.4478 10.8023 28.4788 10.8709C28.5835 11.1046 28.6814 11.3403 28.7681 11.5826C28.7801 11.6154 28.7801 11.6154 28.7924 11.6489C28.8327 11.7654 28.8458 11.8332 28.8119 11.9513C28.3111 11.9675 27.8103 11.9797 27.3094 11.9871C27.0767 11.9907 26.8442 11.9955 26.6116 12.0035C26.4087 12.0104 26.2059 12.0149 26.0029 12.0164C25.8955 12.0173 25.7884 12.0194 25.6811 12.0244C25.0314 12.054 25.0314 12.054 24.8376 11.8841C24.7045 11.7206 24.6136 11.5393 24.5277 11.3434C24.4688 11.219 24.3927 11.1133 24.3108 11.0058C24.2974 10.9877 24.2839 10.9696 24.2701 10.9509C24.1003 10.7239 23.92 10.507 23.7266 10.3034C23.5743 10.1386 23.5743 10.1386 23.5291 10.0874C22.3916 8.81521 20.5656 8.00894 18.9407 7.96148C18.7496 7.95826 18.5585 7.95874 18.3674 7.95886C18.3024 7.95878 18.2374 7.95868 18.1724 7.95858C17.9943 7.95832 17.8163 7.95827 17.6383 7.95824C17.4461 7.95818 17.2538 7.95793 17.0616 7.9577C16.7502 7.95735 16.4388 7.95708 16.1275 7.95688C15.6016 7.95655 15.0758 7.95592 14.55 7.95518C14.3474 7.9549 14.1448 7.95463 13.9422 7.95436C13.9197 7.95432 13.8972 7.95429 13.8741 7.95426C13.3388 7.95354 12.8036 7.95289 12.2683 7.95227C12.2449 7.95224 12.2215 7.95222 12.1974 7.95219C11.6514 7.95156 11.1054 7.951 10.5594 7.9506C10.5242 7.95057 10.5242 7.95057 10.4882 7.95054C10.299 7.9504 10.1097 7.95026 9.92045 7.95013C9.13932 7.94956 8.35818 7.94866 7.57705 7.94739C7.46663 7.94721 7.35622 7.94703 7.2458 7.94686C7.22407 7.94682 7.20234 7.94679 7.17995 7.94675C6.83102 7.94622 6.48208 7.94603 6.13315 7.94599C5.78217 7.94594 5.43121 7.94553 5.08024 7.94478C4.89028 7.94438 4.70033 7.94415 4.51038 7.94434C4.33623 7.94452 4.16209 7.94423 3.98795 7.9436C3.9252 7.94345 3.86246 7.94346 3.79972 7.94366C2.74909 7.94672 1.83296 7.60548 1.07109 6.80989C1.03817 6.77739 1.03817 6.77739 1.00459 6.74424C0.677571 6.41237 0.462178 5.99482 0.279363 5.55751C0.264643 5.52348 0.249923 5.48945 0.234757 5.45438C0.145724 5.22974 0.098238 5.00163 0.0566906 4.76241C0.0514601 4.73253 0.0462297 4.70266 0.0408407 4.67188C0.00727129 4.46227 -0.00924033 4.25421 0.0053047 4.04146C0.0521033 3.99081 0.0946333 4.00436 0.159878 4.00433Z" fill="#B3261E"/>
</svg>
